HIERARCHY
ROOT Hips
{
	OFFSET -0.001795 -0.223333 0.028219
	CHANNELS 6 Xposition Yposition Zposition Zrotation Yrotation Xrotation 
	JOINT LeftUpLeg
	{
		OFFSET 0.069520 -0.091406 -0.006815
		CHANNELS 3 Zrotation Yrotation Xrotation
		JOINT LeftLeg
		{
			OFFSET 0.034277 -0.375199 -0.004496
			CHANNELS 3 Zrotation Yrotation Xrotation
			JOINT LeftFoot
			{
				OFFSET -0.013596 -0.397961 -0.043693
				CHANNELS 3 Zrotation Yrotation Xrotation
				JOINT LeftToe
				{
					OFFSET 0.026358 -0.055791 0.119288
					CHANNELS 3 Zrotation Yrotation Xrotation
					End Site
					{
						OFFSET 0.000000 0.000000 0.000000
					}
				}
			}
		}
	}
	JOINT RightUpLeg
	{
		OFFSET -0.067670 -0.090522 -0.004320
		CHANNELS 3 Zrotation Yrotation Xrotation
		JOINT RightLeg
		{
			OFFSET -0.038290 -0.382569 -0.008850
			CHANNELS 3 Zrotation Yrotation Xrotation
			JOINT RightFoot
			{
				OFFSET 0.015774 -0.398415 -0.042312
				CHANNELS 3 Zrotation Yrotation Xrotation
				JOINT RightToe
				{
					OFFSET -0.025372 -0.048144 0.123348
					CHANNELS 3 Zrotation Yrotation Xrotation
					End Site
					{
						OFFSET 0.000000 0.000000 0.000000
					}
				}
			}
		}
	}
	JOINT Spine
	{
		OFFSET -0.002533 0.108963 -0.026696
		CHANNELS 3 Zrotation Yrotation Xrotation
		JOINT Spine1
		{
			OFFSET 0.005487 0.135180 0.001092
			CHANNELS 3 Zrotation Yrotation Xrotation
			JOINT Spine2
			{
				OFFSET 0.001457 0.052922 0.025425
				CHANNELS 3 Zrotation Yrotation Xrotation
				JOINT Neck
				{
					OFFSET -0.002778 0.213870 -0.042857
					CHANNELS 3 Zrotation Yrotation Xrotation
					JOINT Head
					{
						OFFSET 0.005152 0.064970 0.051349
						CHANNELS 3 Zrotation Yrotation Xrotation
						End Site
						{
							OFFSET 0.000000 0.000000 0.000000
						}
					}
				}
				JOINT LeftShoulder
				{
					OFFSET 0.078845 0.121749 -0.034090
					CHANNELS 3 Zrotation Yrotation Xrotation
					JOINT LeftArm
					{
						OFFSET 0.090977 0.030469 -0.008868
						CHANNELS 3 Zrotation Yrotation Xrotation
						JOINT LeftForeArm
						{
							OFFSET 0.259612 -0.012772 -0.027456
							CHANNELS 3 Zrotation Yrotation Xrotation
							JOINT LeftHand
							{
								OFFSET 0.249234 0.008986 -0.001171
								CHANNELS 3 Zrotation Yrotation Xrotation
								End Site
								{
									OFFSET 0.000000 0.000000 0.000000
								}
							}
						}
					}
				}
				JOINT RightShoulder
				{
					OFFSET -0.081759 0.118833 -0.038615
					CHANNELS 3 Zrotation Yrotation Xrotation
					JOINT RightArm
					{
						OFFSET -0.096012 0.032551 -0.009143
						CHANNELS 3 Zrotation Yrotation Xrotation
						JOINT RightForeArm
						{
							OFFSET -0.253742 -0.013329 -0.021401
							CHANNELS 3 Zrotation Yrotation Xrotation
							JOINT RightHand
							{
								OFFSET -0.255298 0.007772 -0.005559
								CHANNELS 3 Zrotation Yrotation Xrotation
								End Site
								{
									OFFSET 0.000000 0.000000 0.000000
								}
							}
						}
					}
				}
			}
		}
	}
}
MOTION
Frames: 16
Frame Time: 0.050000
0.000000 0.952491 0.000000 0.458270 3.175387 4.837017 -1.834849 0.470826 4.011479 1.747130 0.259405 -9.280998 -5.069464 -1.927268 15.030469 0.000000 0.000000 0.000000 3.177893 -0.198910 0.793788 -1.669906 -0.103059 -5.226471 7.160392 9.924788 11.480502 0.000000 0.000000 0.000000 3.412048 0.042490 -1.880079 0.391135 -0.461727 5.874355 -2.733585 0.518381 0.675621 3.044697 -0.842841 -11.955330 0.000000 0.000000 0.000000 -27.493088 -8.530433 1.422102 -18.916684 6.666357 -2.590517 14.661106 -13.580575 -1.240490 0.000000 0.000000 0.000000 23.575194 4.658699 1.249418 23.919642 -9.459671 -3.668591 -14.602179 17.764100 -1.342127 0.000000 0.000000 0.000000 
0.000276 0.950483 0.001818 0.254367 3.434617 5.191771 -1.520512 0.483627 4.331863 1.618757 0.306774 -10.358186 -5.146737 -2.157002 14.731935 0.000000 0.000000 0.000000 3.126452 -0.116663 0.167895 -1.120604 -0.103314 -4.557542 6.858440 9.826822 10.710649 0.000000 0.000000 0.000000 4.020444 0.021755 -1.768002 -0.145826 -0.225326 6.855749 -3.286388 1.007560 -0.315502 3.566035 -0.746572 -14.811204 0.000000 0.000000 0.000000 -26.262605 -10.280604 2.252124 -19.810926 7.140382 -2.705393 15.155854 -12.788477 -1.237101 0.000000 0.000000 0.000000 24.654661 2.719274 0.251508 23.909043 -10.616509 -3.844928 -15.038175 18.846875 -1.482288 0.000000 0.000000 0.000000 
0.000373 0.949411 0.003332 0.197447 3.511478 5.214664 -0.826697 0.437875 4.347816 0.519642 0.315198 -10.248619 -5.146706 -2.305582 14.416222 0.000000 0.000000 0.000000 3.022307 -0.106027 0.112794 -0.797462 -0.113787 -4.308901 6.739205 9.839942 10.311130 0.000000 0.000000 0.000000 4.778429 -0.011648 -1.487746 -0.643948 0.155469 4.001341 -3.666911 0.935537 2.259853 4.163940 -1.117292 -14.982674 0.000000 0.000000 0.000000 -25.062975 -10.726283 2.669765 -21.157062 7.769887 -3.101279 13.924442 -13.514177 -1.170125 0.000000 0.000000 0.000000 24.601212 3.769128 1.023834 24.880749 -11.237217 -4.239721 -15.876017 18.427799 -1.556215 0.000000 0.000000 0.000000 
0.000294 0.949663 0.004668 0.206681 3.783344 5.260748 -0.604034 0.469750 4.881971 0.198481 0.342589 -11.166046 -5.430969 -2.496378 14.888829 0.000000 0.000000 0.000000 2.824062 -0.118497 0.268646 -0.381355 -0.152342 -4.497967 6.690405 9.662765 10.493724 0.000000 0.000000 0.000000 4.704494 -0.004295 -1.584595 -0.844492 0.224445 4.805337 -3.255358 0.950300 1.528007 3.804769 -0.861969 -15.160945 0.000000 0.000000 0.000000 -26.508883 -11.298959 2.924188 -20.508976 8.709659 -3.076557 14.387253 -13.136258 -1.183888 0.000000 0.000000 0.000000 24.908547 4.186691 1.261967 24.361243 -13.081921 -4.379617 -15.916933 17.931431 -1.515437 0.000000 0.000000 0.000000 
0.000189 0.949944 0.005623 0.266782 3.891007 5.037121 -0.626772 0.509187 5.313096 0.179077 0.347726 -11.394114 -5.552061 -2.578845 15.078879 0.000000 0.000000 0.000000 2.811789 -0.151019 0.542110 -0.436334 -0.144790 -4.420810 6.646256 9.587419 10.492069 0.000000 0.000000 0.000000 4.890725 -0.009792 -1.509635 -0.607285 0.093838 4.902596 -3.866158 1.191772 0.971490 4.203841 -1.221329 -13.883739 0.000000 0.000000 0.000000 -26.534345 -11.382461 2.771227 -20.212071 9.300107 -3.052515 13.856163 -13.753078 -1.185469 0.000000 0.000000 0.000000 24.892744 3.650139 1.063061 24.320580 -13.010876 -4.364162 -15.453034 17.207495 -1.365571 0.000000 0.000000 0.000000 
0.000111 0.949968 0.006289 0.422100 4.076491 4.768218 -0.957798 0.557806 5.581036 0.538321 0.342196 -11.283288 -5.643562 -2.707240 15.050190 0.000000 0.000000 0.000000 2.199059 -0.167862 0.872343 0.411207 -0.204402 -4.359316 6.612016 9.519931 10.524275 0.000000 0.000000 0.000000 4.732311 -0.027052 -1.214201 -0.637050 0.067693 5.837883 -3.712958 0.783754 0.205773 3.815788 -0.961850 -14.202734 0.000000 0.000000 0.000000 -26.712692 -11.224604 2.767995 -20.293858 8.695891 -2.983320 14.092865 -12.993941 -1.137483 0.000000 0.000000 0.000000 24.084817 4.230056 1.277510 25.197727 -13.058370 -4.495442 -15.326100 16.074396 -1.241576 0.000000 0.000000 0.000000 
0.000059 0.950121 0.006736 0.643344 4.161582 4.633027 -0.957978 0.551969 5.524627 0.152930 0.330486 -10.852980 -5.710888 -2.803598 15.047980 0.000000 0.000000 0.000000 2.036826 -0.185263 1.072722 0.298442 -0.196079 -4.358307 6.545805 9.446859 10.437281 0.000000 0.000000 0.000000 4.631317 -0.050897 -0.860551 -0.489445 -0.005558 5.661818 -3.880189 0.946037 0.075933 3.912922 -1.013317 -14.078272 0.000000 0.000000 0.000000 -26.934457 -11.072286 2.555047 -19.792366 8.451291 -2.844450 13.953245 -12.298121 -1.062605 0.000000 0.000000 0.000000 23.867055 3.770599 1.078067 24.863575 -13.040378 -4.429680 -14.327868 15.144669 -1.034283 0.000000 0.000000 0.000000 
0.000121 0.950223 0.007139 0.627198 4.294357 4.697171 -0.916201 0.525683 5.280111 0.246840 0.296844 -9.721462 -5.640435 -3.671800 13.079618 0.000000 0.000000 0.000000 1.914842 -0.190207 1.153488 0.574615 -0.224619 -4.570421 6.543688 9.367113 10.591875 0.000000 0.000000 0.000000 4.840870 -0.055922 -0.868781 -0.610364 0.048935 5.804691 -3.902236 1.088158 -0.245386 3.774524 -0.826311 -14.709752 0.000000 0.000000 0.000000 -27.209957 -10.844057 2.299355 -19.294472 7.744215 -2.648544 14.081579 -10.929423 -0.955076 0.000000 0.000000 0.000000 23.830001 3.545734 0.997553 24.981910 -13.136448 -4.465085 -13.413361 13.935798 -0.831156 0.000000 0.000000 0.000000 
0.000146 0.950447 0.007636 0.668333 4.347062 4.824200 -0.931694 0.507707 5.069902 0.273123 0.276422 -9.045306 -5.585963 -4.156151 11.984885 0.000000 0.000000 0.000000 1.984120 -0.212736 1.312193 0.383215 -0.228941 -5.038886 6.568755 9.314084 10.778829 0.000000 0.000000 0.000000 4.952372 -0.060202 -0.874580 -0.505843 -0.012153 5.880647 -4.128345 1.454729 -0.536083 4.021724 -0.914644 -14.836819 0.000000 0.000000 0.000000 -27.350320 -10.774334 2.051935 -19.003327 7.373832 -2.516501 14.587783 -9.663647 -0.891189 0.000000 0.000000 0.000000 23.941509 3.100042 0.862115 25.229487 -13.498963 -4.584259 -12.959749 13.452843 -0.739995 0.000000 0.000000 0.000000 
0.000068 0.950526 0.008197 0.693357 4.450491 4.884840 -0.874672 0.490306 4.929641 0.110012 0.265942 -8.573870 -5.428137 -4.242302 11.305872 0.000000 0.000000 0.000000 1.955168 -0.251440 1.638168 0.424077 -0.256305 -5.662961 6.604139 9.257214 11.018767 0.000000 0.000000 0.000000 5.056671 -0.055543 -0.978304 -0.434185 -0.057925 5.966504 -4.341742 1.860319 -0.784248 3.845736 -0.706044 -15.275976 0.000000 0.000000 0.000000 -27.470080 -10.857502 1.879883 -18.741170 7.020760 -2.391611 14.914830 -8.565525 -0.820405 0.000000 0.000000 0.000000 24.181241 2.576388 0.691738 25.285376 -13.790614 -4.657361 -12.124678 13.193273 -0.637043 0.000000 0.000000 0.000000 
-0.000086 0.950310 0.008702 0.699161 4.256023 5.032204 -0.957476 0.490457 4.849911 0.206169 0.266333 -8.631612 -5.317342 -4.102231 11.259091 0.000000 0.000000 0.000000 2.020115 -0.277299 1.815752 0.273768 -0.269729 -6.232603 6.735252 9.413576 11.158644 0.000000 0.000000 0.000000 5.106054 -0.023397 -1.405149 -0.545423 -0.000436 6.132412 -4.399732 2.146236 -0.782042 3.676977 -0.603055 -15.169294 0.000000 0.000000 0.000000 -27.605571 -10.846906 1.781743 -18.430602 7.199352 -2.351721 15.133376 -7.936039 -0.776838 0.000000 0.000000 0.000000 24.538841 2.444938 0.673428 25.699598 -14.305883 -4.842310 -11.534056 13.307433 -0.590102 0.000000 0.000000 0.000000 
-0.000258 0.949564 0.009072 0.622410 4.158753 5.122747 -0.921858 0.490733 4.874246 0.279572 0.269905 -8.793670 -5.212289 -4.045932 11.052259 0.000000 0.000000 0.000000 2.242504 -0.307240 1.966250 0.032372 -0.273934 -6.654024 6.767746 9.517644 11.073883 0.000000 0.000000 0.000000 5.169016 -0.022413 -1.449214 -0.537200 0.009602 5.862394 -4.533519 2.353873 -0.555580 3.664852 -0.521828 -15.624434 0.000000 0.000000 0.000000 -27.605743 -10.871555 1.725447 -18.548994 7.187052 -2.361231 15.350716 -7.328688 -0.734818 0.000000 0.000000 0.000000 24.895768 2.101244 0.530619 26.054350 -14.519962 -4.978971 -10.806471 13.823623 -0.552509 0.000000 0.000000 0.000000 
-0.000398 0.948817 0.009278 0.519159 3.977526 5.205991 -1.070656 0.502902 4.876394 0.698583 0.265124 -8.914787 -5.033501 -3.902731 10.782760 0.000000 0.000000 0.000000 2.432167 -0.329107 2.058494 -0.125210 -0.280171 -6.987837 6.840068 9.688004 10.995052 0.000000 0.000000 0.000000 5.287543 -0.009043 -1.646142 -0.490338 -0.012956 5.914216 -4.738665 2.318561 -0.507665 3.461375 -0.376558 -15.885561 0.000000 0.000000 0.000000 -27.833764 -11.038234 1.846043 -18.672054 7.529316 -2.423220 15.564760 -7.061860 -0.719893 0.000000 0.000000 0.000000 25.172567 2.373898 0.676950 26.742795 -15.251415 -5.256265 -10.267034 14.763953 -0.555312 0.000000 0.000000 0.000000 
-0.000495 0.948069 0.009445 0.345920 3.670854 5.214479 -1.101367 0.503229 4.842468 1.002739 0.256039 -8.816705 -4.767878 -3.673855 10.415618 0.000000 0.000000 0.000000 2.779308 -0.364585 2.188795 -0.466852 -0.275977 -7.269501 6.961126 9.949414 10.902216 0.000000 0.000000 0.000000 5.472960 -0.022772 -1.513109 -0.601001 0.054614 5.938077 -4.785423 2.433469 -0.575407 3.697512 -0.481666 -16.143609 0.000000 0.000000 0.000000 -27.489265 -11.227596 1.987990 -19.248501 8.075480 -2.577092 15.734330 -7.274043 -0.754578 0.000000 0.000000 0.000000 25.543519 2.376685 0.667251 26.927096 -15.549532 -5.348323 -9.803487 15.569452 -0.548957 0.000000 0.000000 0.000000 
-0.000656 0.947189 0.009730 0.133120 3.359187 5.218139 -1.297839 0.534545 5.006917 1.683035 0.250234 -9.046974 -4.498737 -3.412015 10.085085 0.000000 0.000000 0.000000 3.120429 -0.414268 2.420958 -0.713228 -0.286114 -7.712072 7.114249 10.238082 10.872979 0.000000 0.000000 0.000000 5.623886 -0.020209 -1.563087 -0.513194 0.011228 6.066702 -4.992104 2.513205 -0.653103 3.832105 -0.564376 -16.113575 0.000000 0.000000 0.000000 -27.425123 -11.462329 2.141960 -19.483439 8.271265 -2.636785 15.668539 -7.337441 -0.757158 0.000000 0.000000 0.000000 25.553059 2.486184 0.724637 27.175534 -16.040891 -5.483587 -9.146648 16.424135 -0.515511 0.000000 0.000000 0.000000 
-0.001036 0.946246 0.010106 -0.056975 3.166770 5.469229 -1.313658 0.526601 4.896954 2.056583 0.252926 -9.275106 -4.302246 -3.240137 9.796199 0.000000 0.000000 0.000000 3.346549 -0.442646 2.518959 -0.735306 -0.318136 -8.373752 7.252612 10.439962 10.959266 0.000000 0.000000 0.000000 5.741990 0.013100 -2.010925 -0.529207 0.028026 5.993164 -5.208028 2.669546 -0.219874 4.111451 -0.725245 -16.086549 0.000000 0.000000 0.000000 -27.323262 -12.185328 2.581215 -19.691045 8.893380 -2.755261 15.968894 -7.833742 -0.831615 0.000000 0.000000 0.000000 25.554478 2.718861 0.926754 27.757974 -16.583595 -5.741326 -8.945146 17.628056 -0.540427 0.000000 0.000000 0.000000 
